<?xml version="1.0" standalone="no"?>
<!DOCTYPE svg PUBLIC "-//W3C//DTD SVG 1.1//EN" "http://www.w3.org/Graphics/SVG/1.1/DTD/svg11.dtd" >
<svg xmlns="http://www.w3.org/2000/svg">
<metadata>Generated by IcoMoon</metadata>
<defs>
<font id="selectline-icons" horiz-adv-x="1024">
<font-face units-per-em="1024" ascent="960" descent="-64" />
<missing-glyph horiz-adv-x="1024" />
<glyph unicode="&#x20;" d="" horiz-adv-x="512" />
<glyph unicode="&#xe600;" d="M610.012 462.415l6.15-1.511c122.083-30.306 165.652-33.26 270.038 105.762l103.7 138.129c10.343 13.779 4.467 35.7-13.16 48.929s-40.27 12.782-50.647-1.031l-103.734-138.163c-87.001-115.864-104.799-111.431-203.586-86.933l-6.184 1.546c-96.141 23.812-239.218-3.367-326.253-119.266l-138.782-184.859c-10.343-13.779-4.467-35.7 13.16-48.929 17.626-13.229 40.27-12.748 50.647 1.031l138.782 184.86c71.676 95.488 184.929 118.99 259.869 100.436zM522.29 621.985l6.15-1.511c122.083-30.306 165.652-33.26 270.038 105.762l103.7 138.129c10.343 13.779 4.467 35.7-13.16 48.929s-40.27 12.782-50.647-1.031l-103.7-138.164c-87.001-115.864-104.765-111.431-203.586-86.933l-6.184 1.546c-96.141 23.812-239.218-3.367-326.253-119.266l-138.782-184.86c-10.343-13.813-4.467-35.7 13.16-48.929s40.271-12.782 50.647 1.031l138.782 184.86c71.641 95.488 184.929 118.99 259.834 100.436zM1050.307 585.941c-17.626 13.229-40.305 12.782-50.682-1.031l-103.666-138.129c-87.001-115.864-104.799-111.465-203.62-86.933l-6.184 1.511c-96.141 23.812-239.218-3.367-326.253-119.265l-138.782-184.86c-10.343-13.779-4.467-35.7 13.16-48.929s40.27-12.782 50.647 1.031l138.782 184.824c71.676 95.454 184.929 118.956 259.834 100.402l6.15-1.511c122.083-30.306 165.687-33.226 270.038 105.796l103.7 138.095c10.343 13.847 4.467 35.769-13.126 48.997z" horiz-adv-x="1123" />
<glyph unicode="&#xe601;" d="M557.929 803.822c38.404 0.869 77.068-13.293 106.348-42.574l395.675-395.675c28.498-28.324 42.574-65.512 42.574-102.698s-14.075-74.201-42.574-102.611c-56.648-56.735-148.485-56.735-205.223 0l-296.714 296.714-296.626-296.625c-56.648-56.735-148.572-56.735-205.311 0-56.735 56.648-56.735 148.572 0 205.311l395.588 395.588c29.28 29.28 67.944 43.441 106.259 42.574z" horiz-adv-x="1111" />
<glyph unicode="&#xe602;" d="M936.8 288.405l-24.968 28.875c43.361 37.644 65.185 78.049 64.803 120.171-0.858 74.142-69.759 132.18-70.425 132.751l24.301 29.448c3.43-2.764 83.101-69.473 84.245-161.435 0.572-54.034-25.54-104.352-77.954-149.809zM1028.097 237.993l-24.968 28.685c60.609 52.51 90.915 109.212 90.248 168.678-1.144 103.972-96.919 184.499-97.872 185.356l24.205 29.352c4.574-3.716 110.26-92.345 111.786-214.042 0.952-71.187-33.925-137.803-103.399-198.030zM795.663 538.945c5.050 58.131-1.525 130.083-10.959 171.347-23.443 101.969-71.95 148-155.718 163.247-11.817 2.097-57.179 3.145-68.996 3.907-7.243 0.477-25.444 0.382-38.12 0.285-12.579 0.095-30.782 0.19-38.12-0.285-11.721-0.763-57.275-1.906-68.996-3.907-83.863-15.248-132.275-61.373-155.718-163.247-9.625-41.265-16.009-113.215-11.15-171.347 0 0-79.384 25.35-29.542-123.031 0 0-28.208-121.22 46.887-84.053 0 0 0.667-79.385 61.848-182.688 0 0 43.648-103.59 180.209-104.734v-0.667c4.002-0.285 7.147 0.477 10.959 0.382 3.24 0.19 5.813-0.382 9.148-0.19v0.572c137.421 1.525 189.74 109.498 189.74 109.498 61.181 103.494 61.373 177.828 61.373 177.828 75.096-37.167 46.792 84.053 46.792 84.053 49.937 148.38-29.639 123.031-29.639 123.031z" horiz-adv-x="1141" />
<glyph unicode="&#xe603;" d="M250.948 1.636c-147.393 24.47-239.336 163.801-198.714 305.129 8.587 29.876 27.098 58.024 45.566 83.709 49.106 68.267 115.154 119.423 179.448 172.447 59.577 49.138 119.359 98.507 174.456 152.472 68.526 67.118 84.949 150.745 60.742 242.837-0.956 3.631-1.554 7.36-3.045 14.566 42.691-19.971 70.481-50.436 88.095-89.291 40.582-89.516 33.392-176.88-15.931-261.333-32.491-55.621-77.648-100.266-123.989-143.952-55.801-52.591-111.913-104.856-166.982-158.204-37.585-36.409-64.872-79.949-86.030-127.997-17.799-40.433-15.774-79.315 3.225-117.416 12.45-24.958 28.361-48.21 43.159-72.968zM327.314 0c-30.1 34.288-36.185 71.98-30.462 112.149 7.608 53.433 33.844 96.95 74.155 132.422 52.072 45.818 106.1 89.673 155.477 138.24 82.294 80.932 127.332 179.57 131.479 298.155 6.309-18.44 14.31-36.488 18.645-55.376 30.469-132.82 0.114-252.635-78.769-361.858-47.47-65.726-112.846-110.115-179.629-153.294-55.652-35.98-71.307-56.159-90.896-110.438z" horiz-adv-x="757" />
<glyph unicode="&#xe604;" d="M223.662 972.8h494.028v-143.419h-494.028v143.419zM0 972.8h136.309v-143.419h-136.309v143.419zM0 737.551h136.309v-143.418h-136.309v143.418zM0 502.303h136.309v-143.419h-136.309v143.419zM938.187 683.456l-92.427-150.584-103.535-12.299-35.945 97.561 92.427 150.464c-24.18 3.106-48.599 1.672-72.004-3.939-49.558-11.824-94.519-42.632-123.296-89.322-42.277-68.904-37.441-153.212 5.434-215.905l-237.341-386.548c-11.884-19.227-14.687-41.319-9.791-61.62 4.897-20.301 17.495-38.691 36.779-50.391 19.224-11.822 41.436-14.69 61.736-9.794 20.364 4.899 38.934 17.555 50.693 36.66l237.397 386.55c24.127-3.106 48.544-1.672 71.951 3.939 49.616 11.944 94.579 42.513 123.295 89.325 42.331 68.902 37.436 153.21-5.373 215.903zM552.173 726.565c2.294 3.72 4.701 7.329 7.194 10.844h-336.253v-143.779h301.951c-6.671 44.518 1.694 91.508 27.108 132.934zM552.306 502.019h-329.191v-142.507h241.694z" horiz-adv-x="973" />
<glyph unicode="&#xe605;" d="M645.086 460.8c0.817-36.029-12.5-72.384-40.032-99.916l-372.052-372.052c-26.633-26.715-61.6-40.032-96.567-40.032s-69.852 13.317-96.485 40.032c-53.349 53.349-53.349 139.703 0 193.052l278.916 278.916-278.835 278.916c-53.349 53.267-53.349 139.703 0 193.052 53.267 53.349 139.703 53.349 193.052 0l372.052-372.052c27.45-27.45 40.767-63.888 39.95-99.916z" horiz-adv-x="645" />
<glyph unicode="&#xe606;" d="M329.875-51.2c-61.787 0-111.917 50.131-111.917 111.917s50.131 111.917 111.917 111.917c61.836 0 111.967-50.081 111.967-111.917s-50.131-111.917-111.967-111.917zM417.888 279.564v-20.102c0 0-167.777 0-184.471 0v20.102c0 56.996 8.297 130.044 74.431 193.608 66.182 63.565 148.861 116.066 148.861 195.436 0 87.766-60.898 134.192-137.699 134.192-127.969 0-136.365-132.711-139.477-161.9h-179.532c4.84 138.341 63.268 331.9 319.997 331.9 222.501 0 322.516-149.009 322.516-288.733 0.049-222.403-224.625-261.025-224.625-404.503z" horiz-adv-x="643" />
<glyph unicode="&#xe607;" d="M113.842 471.975c-0.712-25.288 0.935-50.31 5.031-75.642l-108.499-27.915c-6.233 34.237-8.904 68.608-8.237 103.558h111.705zM79.649 189.529l91.181 64.957c-13.267 21.905-24.398 45.279-33.213 69.721l-108.544-27.96c12.733-37.71 29.785-73.461 50.577-106.719zM272.161 141.624c-20.747 15.761-39.891 33.436-57.21 52.892l-91.359-65.091c26.98-31.878 57.923-60.416 91.937-84.858l56.632 97.057zM513.024 972.8c-139.398 0-275.723-55.964-367.883-146.699l-87.975 88.153-57.166-313.611 312.943 57.255-88.954 89.133c71.992 70.478 180.447 113.976 289.035 113.976 220.516 0 399.36-179.155 399.36-400.161s-178.844-400.117-399.36-400.117c-63.844 0-124.082 14.959-177.597 41.672l-56.454-96.701c70.166-36.419 149.727-56.899 234.051-56.899 282.179 0 510.976 229.242 510.976 512 0 282.802-228.797 512-510.976 512zM632.164 440.231c35.083 0 70.122 13.312 96.968 40.159 39.491 39.491 49.775 97.013 31.21 146.076l-86.194-86.328-71.324 8.326-8.326 71.413 86.194 86.328c-15.761 5.921-32.278 8.949-48.885 8.949-35.039 0-70.166-13.401-96.968-40.248-39.446-39.491-49.82-96.968-31.21-146.031l-221.318-221.629c-11.041-10.997-16.518-25.422-16.518-39.847 0-14.47 5.476-28.895 16.518-39.891 10.952-10.997 25.377-16.518 39.758-16.518 14.425 0 28.85 5.521 39.847 16.518l221.407 221.629c15.627-5.966 32.234-8.904 48.84-8.904z" />
<glyph unicode="&#xe608;" d="M511.975 972.8c-282.742 0-511.975-229.233-511.975-511.975s229.233-512.025 511.975-512.025 511.975 229.233 511.975 512.025-229.184 511.975-511.975 511.975zM868.472 460.825c0-70.191-20.493-135.629-55.638-190.871l-491.73 491.68c55.242 35.145 120.68 55.638 190.871 55.638 196.563 0 356.497-159.933 356.497-356.447zM155.528 460.825c0 70.191 20.493 135.629 55.638 190.821l491.73-491.68c-55.242-35.145-120.68-55.638-190.871-55.638-196.613 0-356.497 159.933-356.497 356.497z" />
<glyph unicode="&#xe609;" d="M817.143 822.304c0-23.616-19.151-42.734-42.734-42.734-23.583 0-42.734 19.151-42.734 42.734v107.563c0 23.583 19.151 42.734 42.734 42.734 23.616 0 42.734-19.151 42.734-42.734v-107.563zM239.669 930.066c0 23.583-19.151 42.734-42.734 42.734-23.616 0-42.734-19.151-42.734-42.734v-107.563c0-23.616 19.151-42.734 42.734-42.734s42.734 19.151 42.734 42.734v107.563zM868.807 867.651v-43.793c0-52.062-42.37-94.399-94.399-94.399s-94.399 42.337-94.399 94.399v43.793h-388.676v-43.594c0-52.062-42.337-94.399-94.399-94.399s-94.399 42.337-94.399 94.399v43.594h-102.536v-918.884h969.127v918.884h-100.32zM875.026 42.868h-780.924v597.75h780.924v-597.75zM449.007 164.852c99.46 178.379 168.555 270.032 262.855 352.359l-12.271 28.214c-114.377-71.146-175.898-124.763-269.007-230.441-49.548 35.325-77.497 51.532-121.554 72.866l-37.674-34.829c75.347-69.89 116.295-115.931 177.651-188.169z" horiz-adv-x="969" />
<glyph unicode="&#xe60a;" d="M0 460.8c-0.817 36.029 12.5 72.466 40.032 99.998l371.97 371.97c26.633 26.715 61.6 40.032 96.567 40.032s69.852-13.317 96.485-40.032c53.349-53.349 53.349-139.703 0-193.052l-278.916-278.916 278.916-278.916c53.349-53.267 53.349-139.703 0-193.052-53.267-53.349-139.703-53.349-193.052 0l-371.97 372.052c-27.532 27.532-40.849 63.888-40.032 99.916z" horiz-adv-x="645" />
<glyph unicode="&#xe60b;" d="M616.289 482.625c-23.795 47.877-65.875 116.923-126.243 207.17-60.399 90.15-101.551 156.186-123.296 198.107-18.703 38.078-28.15 64.851-28.15 80.447v4.451c-15.82-58.478-54.507-134.185-115.867-226.833-88.101-134.537-137.547-212.134-148.436-232.63-49.543-89.606-74.298-168.548-74.298-236.889 0-91.688 32.153-169.316 96.555-232.63 64.306-63.378 144.529-95.018 240.604-95.018 91.944 0 171.014 30.968 236.761 92.905 65.875 61.872 98.829 140.238 98.829 234.743 0 61.392-18.863 130.278-56.46 206.177zM303.565 32.513c-62.737 0-119.774 25.14-160.862 65.619-41.12 40.48-66.644 96.716-66.644 158.524 0 15.788 13.002 28.598 29.047 28.598s29.047-12.81 29.047-28.598c0-46.18 18.927-87.749 49.607-118.044 30.776-30.264 72.921-48.87 119.774-48.902 16.077 0 29.079-12.81 29.079-28.598 0.032-15.788-12.97-28.598-29.047-28.598z" horiz-adv-x="673" />
<glyph unicode="&#xe60c;" d="M140.603 972.8c-84.519 0-150.001-74.471-139.475-158.682 8.715-69.96 73.856-416.203 95.695-531.617 4.101-21.771 22.967-37.526 45.011-37.526h0.854c21.326 0 39.645 15.243 43.609 36.296 21.531 113.637 86.74 459.607 95.592 530.66 10.697 85.407-55.64 160.869-141.286 160.869zM141.525 159.636c-58.032 0-104.991-47.198-104.991-105.401 0-58.237 46.993-105.435 104.991-105.435 57.998 0 104.991 47.198 104.991 105.435 0 58.203-46.993 105.401-104.991 105.401z" horiz-adv-x="283" />
<glyph unicode="&#xe60d;" d="M949.512 556.202c-28.428 10.145-51.322 31.846-62.823 59.677v0.054c-11.664 27.94-10.796 59.514 2.224 86.803l33.907 71.341-97.49 97.544-71.449-33.907c-27.343-12.966-58.863-13.78-86.803-2.279h-0.054c-27.831 11.61-49.532 34.45-59.677 62.878l-26.366 74.488h-137.962l-26.421-74.488c-10.145-28.428-31.846-51.322-59.677-62.878h-0.054c-27.94-11.501-59.46-10.742-86.748 2.279l-71.449 33.907-97.49-97.544 33.907-71.395c12.966-27.289 13.78-58.863 2.224-86.803v-0.054c-11.501-27.885-34.396-49.532-62.823-59.677l-74.488-26.366v-137.962l74.488-26.421c28.428-10.145 51.322-31.846 62.823-59.677v-0.109c11.556-27.885 10.796-59.46-2.224-86.748l-33.907-71.341 97.49-97.544 71.395 33.907c27.343 12.966 58.863 13.78 86.803 2.279 0.054 0 0.054 0 0.054 0 27.831-11.556 49.423-34.45 59.677-62.878l26.421-74.488h137.962l26.258 73.999c10.199 28.699 32.117 51.81 60.219 63.474 13.020 5.479 26.8 8.138 40.58 8.138 15.516 0 30.978-3.472 45.3-10.254l71.938-34.124 97.49 97.49-34.016 71.449c-12.912 27.234-13.671 58.755-2.116 86.64 5.805 13.997 14.377 26.366 25.119 36.566 10.688 10.199 23.545 18.174 37.759 23.22l74.433 26.421v137.962l-74.433 26.421zM512.027 273.116c-103.729 0-187.765 84.036-187.765 187.711s84.036 187.819 187.765 187.819 187.819-84.144 187.819-187.819-84.090-187.711-187.819-187.711z" />
<glyph unicode="&#xe60e;" d="M1156.183 972.8c-361.013-221.331-622.973-500.528-740.662-640.713l-288.206 225.864-127.314-102.635 498.065-506.516c85.678 219.54 357.152 648.66 688.673 953.543l-30.555 70.457z" horiz-adv-x="1187" />
<glyph unicode="&#xe60f;" d="M511.981 972.8c-282.319 0-511.981-229.7-511.981-512.019s229.662-511.981 511.981-511.981 511.981 229.662 511.981 511.981-229.623 512.019-511.981 512.019zM511.981 10.247c-248.462 0-450.572 202.11-450.572 450.572s202.11 450.572 450.572 450.572 450.572-202.11 450.572-450.572c0-248.462-202.11-450.572-450.572-450.572zM552.984 767.977h-81.929v-266.232h-266.27v-81.929h266.27v-266.232h81.929v266.232h266.232v81.929h-266.232v266.232z" />
<glyph unicode="&#xe610;" d="M863.71 972.8l-615.902-512.375 190.839-0.239-336.247-511.386 659.797 515.925-196.335-0.58z" horiz-adv-x="966" />
<glyph unicode="&#xe611;" d="M552.871 117.778c-38.404-0.869-77.068 13.293-106.348 42.574l-395.675 395.675c-28.498 28.324-42.574 65.512-42.574 102.698s14.075 74.201 42.574 102.611c56.648 56.735 148.485 56.735 205.223 0l296.714-296.714 296.626 296.625c56.648 56.735 148.572 56.735 205.311 0 56.735-56.648 56.735-148.572 0-205.311l-395.588-395.588c-29.28-29.28-67.944-43.441-106.259-42.574z" horiz-adv-x="1111" />
<glyph unicode="&#xe612;" d="M1587.978 685.914c-2.243 0.086-4.595 0.173-5.264 0.173-0.647 0-6.321 0-12.598 0s-16.567 0-22.845 0c-6.299 0-16.589 0-22.888 0-6.277 0-13.31-0.086-15.618-0.173s-10.462-1.532-12.857-2.136-9.729-4.056-11.692-5.307-6.774-7.248-7.831-9.276c-1.035-2.028-1.898-15.273-1.898-23.384s0-21.356 0-29.446 0-12.123 0-8.974 0-0.884 0-8.974-3.365-14.734-7.507-14.734-10.894 0-15.014 0-10.894 0-15.014 0-10.872 0-14.993 0c-4.142 0-9.039 1.985-10.915 4.422s-19.026 24.765-25.628 33.35c-6.579 8.564-32.121 41.871-39.822 51.881-7.68 10.009-29.187 37.902-34.343 44.611-5.177 6.709-12.727 16.222-14.993 18.962-2.265 2.74-9.837 11.196-12.016 13.439-2.157 2.265-9.945 8.629-12.253 10.247s-11.239 5.264-13.979 6.019c-2.74 0.755-22.327 1.359-36.284 1.359-13.935 0-36.715 0-50.651 0s-36.715 0-50.651 0c-13.935 0-36.737 0-50.694 0-13.935 0-25.325 9.211-25.325 20.493s0 29.705 0 40.965 0 29.683 0 40.944 5.868 20.472 13.029 20.472 18.919 0 26.102 0c7.162 0 18.919 0 26.081 0 7.183 0 18.94 0 26.102 0s15.036 0.173 17.473 0.41c2.438 0.216 10.031 2.675 12.102 3.646 2.049 0.992 7.895 5.868 9.405 7.507 1.467 1.639 4.918 8.521 5.63 10.7 0.712 2.179 1.079 10.441 0.82 12.835s-3.020 14.259-4.12 21.788c-1.122 7.55-6.493 17.538-8.262 18.875-1.79 1.337-9.039 4.401-11.304 5.026s-42.518 1.165-83.958 1.165-104.387 0-139.873 0-98.692 0-140.412 0c-41.742 0-109.758 0-151.198 0-41.44 0-77.314-0.173-79.752-0.41-2.438-0.216-10.031-2.675-12.080-3.646s-7.917-10.462-9.384-17.754-4.94-18.724-5.652-20.903c-0.712-2.179-1.079-10.419-0.82-12.835s3.042-9.686 4.142-11.606c1.122-1.92 6.45-7.313 8.24-8.629s9.039-4.401 11.304-5.026c2.265-0.626 14.798-1.122 22.305-1.122s19.781 0 27.289 0c7.507 0 19.781 0 27.289 0 7.507 0 19.781 0 27.289 0s13.633-9.211 13.633-20.472 0-29.683 0-40.944 0-29.683 0-40.965-8.521-20.493-18.897-20.493-27.418 0-37.816 0-27.418 0-37.816 0-27.418 0-37.816 0-22.888-0.388-27.742-0.841c-4.854-0.453-18.509-4.616-21.96-6.234s-12.404-7.723-14.518-9.556c-2.114-1.834-6.687-6.752-7.55-7.895s-7.723-10.959-15.251-21.809c-7.529-10.829-19.825-28.583-27.375-39.434-7.529-10.829-19.825-28.583-27.353-39.434-7.529-10.829-24.441-28.583-37.6-39.412-13.159-10.851-28.712-19.717-34.558-19.717-5.846 0-15.424 0-21.27 0-5.846 0-15.402 0-21.248 0-5.846 0-15.424 0-21.27 0s-12.727-0.345-15.273-0.755c-2.545-0.41-9.88-4.767-11.757-6.472s-6.925-9.513-8.111-12.059c-1.208-2.545-3.905-12.145-4.422-15.036-0.518-2.891-0.949-23.988-0.949-40.62s0-34.645 0-40.016c0-5.371 0-14.173 0-19.544 0-5.371 0-14.173 0-19.544s-6.925-9.772-15.359-9.772-22.284 0-30.718 0-22.262 0-30.718 0-22.262 0-30.718 0-15.359 7.162-15.359 15.92 0 23.082 0 31.84 0 23.082 0 31.84 0 23.082 0 31.84 0 27.569 0 41.828c0 14.259 0 37.578 0 51.837 0 14.259 0 37.578 0 51.816 0 14.259 0 37.578 0 51.816 0 14.259 0 26.577 0 27.418s0 2.157 0 2.977 0 2.157 0 2.977 0 2.157 0 2.977-0.086 3.775-0.194 6.536-1.639 12.123-2.265 14.777c-0.626 2.632-4.25 10.57-5.544 12.641-1.294 2.071-7.399 7.076-9.449 8.133s-9.017 1.941-9.449 1.941-5.695 0-11.735 0c-6.040 0-11.325 0-11.735 0-0.41 0-1.079 0-1.488 0s-2.826-0.324-5.371-0.712-9.794-4.487-11.649-6.105-6.752-8.996-7.895-11.412c-1.186-2.416-3.754-11.563-4.25-14.324-0.496-2.761-0.906-22.305-0.906-37.363 0-15.057 0-39.736 0-54.793 0-15.079 0-39.736 0-54.814s0-39.736 0-54.814 0.129-29.705 0.302-32.552c0.173-2.826 2.179-12.62 3.020-15.446 0.841-2.826 5.177-11.412 6.687-13.698s8.197-7.831 10.398-9.017c2.2-1.186 9.578-2.157 10.376-2.157 0.82 0 2.114 0 2.912 0 0.798 0 2.114 0 2.912 0 0.82 0 2.114 0 2.912 0 0.798 0 1.445-4.595 1.445-10.247s0-14.842 0-20.472 0-14.842 0-20.472 0-14.842 0-20.472-1.985-10.247-4.444-10.247-6.428 0-8.888 0c-2.438 0-6.428 0-8.866 0-2.438 0-6.428 0-8.866 0s-6.472-0.108-8.952-0.259c-2.481-0.129-9.211-1.92-10.851-2.653s-5.781-4.724-6.709-6.126c-0.928-1.402-2.869-7.809-3.214-9.923-0.367-2.114-0.647-10.829-0.647-13.288s0-6.493 0-8.952 0-6.493 0-8.952 0-6.515 0-8.952c0-2.459 0.086-6.709 0.194-9.405 0.108-2.718 1.596-11.455 2.222-13.892s4.185-9.492 5.458-11.304c1.273-1.834 7.356-6.17 9.405-7.076 2.049-0.906 10.657-1.639 13.094-1.639s6.428 0 8.866 0c2.438 0 6.428 0 8.866 0 2.438 0 6.428 0 8.888 0s4.444-18.962 4.444-42.13 0-61.092 0-84.26c0-23.147 0-61.070 0-84.26 0-23.168 0-61.092 0-84.26s0.065-44.244 0.151-46.811c0.065-2.589 1.273-10.204 1.79-12.167 0.518-2.006 8.284-7.399 15.057-8.715s17.128-4.314 19.091-4.918 8.866-1.079 9.276-1.079 1.079 0 1.51 0c0.41 0 1.079 0 1.488 0 0.431 0 1.1 0 1.51 0s7.464 0.173 15.661 0.388c8.219 0.194 20.386 2.567 22.349 3.538 1.963 0.949 7.313 5.824 8.629 7.485s4.25 8.78 4.832 11.066 1.057 20.86 1.057 35.205 0 37.859 0 52.204 0 37.859 0 52.204 0 37.859 0 52.204-0.28 28.281-0.647 30.956c-0.367 2.653-4.099 10.915-5.587 13.137-1.488 2.243-8.435 8.629-10.721 10.247-2.287 1.618-15.791 5.393-24.161 6.17s-20.321 6.623-20.321 12.965 0 16.74 0 23.104 0 16.761 0 23.125 0 16.761 0 23.104 6.903 11.541 15.359 11.541 22.262 0 30.718 0 22.262 0 30.718 0 22.284 0 30.718 0 15.359-3.43 15.359-7.636 0-11.11 0-15.316 0-11.11 0-15.316 0-11.11 0-15.316c0-4.185 0.151-9.966 0.324-12.771 0.173-2.826 2.287-12.080 3.15-14.647 0.884-2.567 5.35-10.096 6.903-12.037 1.553-1.963 8.348-6.601 10.57-7.593 2.222-0.971 13.461-1.769 18.94-1.769s14.475 0 19.976 0c5.501 0 14.475 0 19.976 0 5.501 0 14.475 0 19.976 0s21.054-11.153 34.558-24.765c13.504-13.612 30.999-35.896 38.894-49.529 7.874-13.633 20.774-35.917 28.648-49.551 7.874-13.633 20.752-35.917 28.648-49.529 7.874-13.633 14.561-25.153 14.842-25.628 0.28-0.475 3.861-4.746 5.328-6.364s9.384-7.874 12.123-9.729c2.761-1.877 15.295-6.881 19.415-8.068 4.142-1.186 59.15-2.136 110.643-2.136s135.99 0 187.784 0c51.794 0 131.438 0 176.998 0s124.966 0 176.459 0 96.319 0.388 99.619 0.82c3.279 0.453 13.137 4.94 15.748 6.73 2.632 1.769 10.311 9.298 12.296 11.714 2.006 2.394 7.723 10.786 9.211 13.18s8.715 14.561 13.677 22.758c4.94 8.176 27.591 43.748 34.968 55.116 7.399 11.325 32.552 49.357 39.628 59.992s25.347 37.88 29.446 43.942 10.462 11.045 14.086 11.045c3.646 0 9.621 0 13.267 0 3.624 0 9.6 0 13.224 0 3.646 0 9.621 0 13.267 0 3.624 0 6.623-6.148 6.623-13.677s0-19.825 0-27.375 0-10.635 0-6.881 0 0.647 0-6.838c0-7.529 0.324-15.812 0.712-18.444 0.41-2.61 4.379-10.613 5.932-12.749 1.532-2.136 8.456-8.068 10.678-9.556s10.355-4.897 12.792-5.587c2.394-0.69 13.482-1.273 19.76-1.273 6.299 0 16.589 0 22.888 0 6.277 0 16.567 0 22.845 0s11.951 0 12.598 0c0.669 0 3.042 0.194 5.264 0.453 2.222 0.259 9.707 2.999 11.843 4.077 2.114 1.1 8.435 6.515 10.074 8.327 1.639 1.834 5.652 9.384 6.493 11.778 0.841 2.373 1.532 31.279 1.532 58.18 0 26.879 0 89.308 0 138.708 0 49.421 0 121.062 0 159.223s0 91.357 0 118.236c0 26.879-0.259 50.91-0.561 53.391s-3.538 9.168-4.832 10.786c-1.316 1.618-7.183 5.652-9.103 6.558s-13.202 3.408-15.424 3.516zM1162.578 494.528c-40.189-30.783-40.189-30.783-40.189-30.783-48.947 14.777-117.697 2.61-152.794-27.030-35.098-29.661-64.069-54.059-64.349-54.232-0.324-0.151-1.273-0.777-1.467-1.014-0.216-0.259-38.851-25.994-85.296-56.713-46.423-30.74-82.944-97.505-81.154-148.394 0 0 0 0-40.232-30.74-36.457-27.849-36.457-27.849-36.457-27.849-47.286 10.959-69.462 32.509-49.27 47.933s39.218 32.682 42.303 38.377c3.085 5.695-7.442 27.267-14.496 36.413-7.054 9.125-17.516 19.134-23.255 22.241-5.738 3.106-36.413-14.173-56.583-29.575s-35.162 11.325-33.35 59.431c0 0 0 0 36.327 27.742 40.167 30.697 40.167 30.697 40.167 30.697 48.882-14.669 126.735-1.381 173.029 29.489 46.293 30.891 84.39 56.281 84.648 56.432s1.208 0.712 1.381 0.949c0.194 0.259 29.618 24.959 64.824 54.405 35.227 29.467 62.623 95.111 60.941 145.891 0 0 0 0 40.059 30.762 36.37 27.871 36.37 27.871 36.37 27.871 47.113-10.678 69.203-32.013 49.098-47.415s-39.067-32.703-42.13-38.42c-3.106-5.717 7.421-27.31 14.496-36.413 7.054-9.125 17.538-19.091 23.298-22.176 5.781-3.085 36.392 14.302 56.54 29.748 20.191 15.446 35.443-11.39 33.911-59.668 0.022-0.022 0.022-0.022-36.37-27.957z" horiz-adv-x="1618" />
<glyph unicode="&#xe613;" d="M840 286.442l-139.625 53.871-13.477 14.517c-11.938 1.347-23.721 3.312-35.387 5.93l-54.988-54.988 35.965-33.347 53.756-139.625 173.357-134.080 114.404 114.365-134.003 173.357zM274.183 519.985h0.039c10.089-10.127 21.563-17.906 33.655-23.798l104.122 104.122c-10.513 46.208-9.78 93.571 0.116 138.855l-30.96 31.036h-0.077l-115.597 115.674c-49.327 49.288-129.229 49.25-178.632 0-24.606-24.645-36.966-56.913-36.927-89.258 0-32.385 12.321-64.614 36.927-89.336l187.334-187.296zM722.362 418.905c64.46 0 128.805 24.413 177.978 73.586 72.47 72.47 91.415 177.862 57.298 267.776l-158.185-158.223-130.923 15.248-15.21 130.923 158.146 158.223c-28.88 10.935-59.223 16.443-89.72 16.443-64.383 0-128.805-24.567-177.978-73.741-72.392-72.392-91.415-177.785-57.298-267.737l-406.245-406.323c-20.255-20.139-30.305-46.594-30.305-73.008 0-26.493 10.050-52.947 30.305-73.085 20.177-20.216 46.594-30.266 73.047-30.266s52.947 10.050 73.085 30.227l406.323 406.323c28.764-10.935 59.223-16.365 89.682-16.365z" />
<glyph unicode="&#xe614;" d="M332.8 778.012c44.203 0 79.986-36.295 79.986-81.067s-35.783-81.067-79.986-81.067c-44.146 0-79.986 36.295-79.986 81.067-0.057 44.772 35.783 81.067 79.986 81.067zM1280 778.297v1.081l-0.114-0.114zM594.944 63.374c0 29.241 15.474 79.644 37.945 102.002l291.954 295.424-124.814 182.727-296.903-344.519-160.028 182.386-234.325-267.378v642.844h994.645c8.59 11.947 30.606 42.098 41.472 52.736 16.953 16.668 28.274 34.076 69.348 51.371v6.827h-1214.236v-972.8h611.783c-15.246 20.252-16.839 44.146-16.839 68.38zM1257.074 363.292l-85.902-85.902v-177.152l-92.956 78.905-188.132-184.092h389.916v361.87c-7.68 2.105-15.474 3.47-22.926 6.372zM1377.963 414.379c71.452 0 142.734 27.136 197.234 81.579 80.27 80.327 101.262 197.12 63.488 296.732l-175.275-175.332-145.067 16.953-16.896 145.010 175.275 175.388c-31.972 12.004-65.593 18.091-99.385 18.091-71.396 0-142.734-27.25-197.234-81.749-80.213-80.213-101.262-197.006-63.488-296.619l-450.105-450.219c-22.471-22.357-33.621-51.655-33.621-80.896 0-29.412 11.15-58.652 33.621-81.010 22.357-22.414 51.598-33.564 80.896-33.564s58.652 11.15 81.010 33.564l450.219 450.162c31.801-12.117 65.593-18.091 99.328-18.091z" horiz-adv-x="1657" />
<glyph unicode="&#xe615;" d="M392.397 972.8v-239.127h866.963v239.127h-866.963zM392.397 341.276h866.963v239.127h-866.963v-239.127zM392.397-51.2h866.963v239.284h-866.963v-239.284zM0 733.673h239.127v239.127h-239.127v-239.127zM0 341.276h239.127v239.127h-239.127v-239.127zM0-51.2h239.127v239.284h-239.127v-239.284z" horiz-adv-x="1259" />
<glyph unicode="&#xe616;" d="M422.628 277.008l-98.958-203.328-23.728-35.558 143.548-31.392 44.794 249.546c-23.197 2.14-45.592 9.27-65.657 20.731zM889.364 597.611c-106.615 212.264-365.094 297.897-577.359 191.281-212.259-106.617-297.895-365.097-191.276-577.359 106.617-212.264 365.097-297.897 577.356-191.278 212.261 106.617 297.897 365.097 191.278 577.356zM670.061 77.066c-180.557-90.697-400.492-17.828-491.185 162.731l180.885 90.862c-5.7 7.651-10.848 15.876-15.284 24.7-8.402 16.72-13.652 34.197-16.076 51.752l-183.76-92.295c-61.406 169.088 56.75 337.683 152.136 400.089l82.472-164.188c11.345 10.623 24.359 19.847 38.956 27.181 16.015 8.041 32.712 13.206 49.523 15.763l-83.076 165.387c107.013 39.256 312.807 33.376 411.785-116.841l-187.615-94.237c12.638-12.428 23.515-27.078 31.922-43.8 4.431-8.826 7.95-17.863 10.688-27.005l181.369 91.098c90.69-180.567 17.826-400.5-162.742-491.197zM786.665 879.44l-3.925-34.343-77.111 63.393 92.396 38.711-2.431-36.489c113.37 27.792 176.482-116.104 179.007-165.331 0 0-71.948 164.092-187.936 134.060zM585.294 454.798c-19.275 48.124-73.912 71.508-122.036 52.237-48.127-19.275-71.511-73.909-52.24-122.031 19.275-48.127 73.909-71.516 122.039-52.24 48.122 19.272 71.508 73.909 52.237 122.034zM875.040 297.53l-215.624 77.863c-5.978-22.097-16.568-42.813-31.168-60.631l207.548-148.759 81.046 122.574-41.803 8.952z" horiz-adv-x="998" />
<glyph unicode="&#xe617;" d="M364.712 601.588h148.712v64.327h-148.712l125.148 125.148c12.535 12.585 12.535 32.988 0 45.573-12.536 12.535-32.939 12.535-45.524 0l-125.152-125.191v177.14c0 17.747-14.341 32.138-32.192 32.138-17.844 0-32.186-14.391-32.186-32.138v-177.14l-125.245 125.197c-12.481 12.535-32.891 12.535-45.476 0-12.536-12.585-12.536-32.993 0-45.573l125.245-125.148h-177.14c-17.752-0.005-32.192-14.341-32.192-32.192 0-17.801 14.439-32.138 32.192-32.138h177.188l-125.294-125.299c-12.585-12.585-12.585-32.988 0-45.53 6.268-6.263 14.542-9.424 22.714-9.424 8.225 0 16.445 3.161 22.762 9.424l125.25 125.299v-177.14c0-17.752 14.341-32.138 32.186-32.138 17.85 0 32.192 14.385 32.192 32.138v177.14l125.245-125.25c6.322-6.219 14.542-9.429 22.762-9.429 8.225 0 16.445 3.21 22.717 9.429 12.585 12.585 12.585 32.994 0 45.53l-125.201 125.245zM872.817 338.611v430.245c0 84.933-69.089 154.026-154.030 154.026-84.933 0-154.026-69.094-154.026-154.026v-430.287c-31.589-36.1-51.343-82.779-51.343-134.469 0-113.364 91.954-205.373 205.367-205.373 113.419 0 205.373 92.008 205.373 205.373 0 51.733-19.753 98.412-51.343 134.513zM718.787 50.063c-85.035 0-154.026 68.991-154.026 154.026 0 45.421 20.056 85.837 51.343 114.016v450.75c0 56.709 45.926 102.684 102.679 102.684 56.661 0 102.684-45.974 102.684-102.684v-450.697c31.29-28.227 51.343-68.638 51.343-114.066 0.010-85.040-68.98-154.030-154.021-154.030zM761.415 281.069v324.213c0 23.663-19.19 37.92-42.814 37.92-23.663 0-42.814-19.151-42.814-42.814v-319.277c-25.38-14.889-42.814-41.894-42.814-73.375 0-47.246 38.341-85.627 85.627-85.627s85.627 38.381 85.627 85.627c0 31.476-17.433 58.486-42.814 73.331z" />
<glyph unicode="&#xe618;" d="M745.074 414.379c71.452 0 142.734 27.136 197.234 81.579 80.27 80.327 101.262 197.12 63.488 296.732l-175.275-175.332-145.067 16.953-16.896 145.010 175.275 175.388c-31.972 12.004-65.593 18.091-99.385 18.091-71.396 0-142.734-27.25-197.234-81.749-80.213-80.213-101.262-197.006-63.488-296.619l-450.105-450.219c-22.471-22.3-33.621-51.655-33.621-80.839 0-29.412 11.15-58.652 33.621-81.010 22.3-22.414 51.598-33.564 80.896-33.564s58.652 11.15 81.010 33.564l450.219 450.162c31.801-12.174 65.593-18.148 99.328-18.148z" />
<glyph unicode="&#xe619;" d="M677.769 425.817c0-56.225 0-185.153 0-240.33 10.454-0.548 19.98 0.5 28.267-1.857 5.715-1.596 12.145-7.43 13.526-12.383 0.81-2.905-6.954-8.93-12.169-11.383-4.287-2.072-10.526-1.024-15.789-1.024-134.12-0.095-268.193-0.167-402.194-0.191-3.834 0-8.549-1.119-11.288 0.405-6.763 3.786-12.717 8.764-19.075 13.36 6.096 3.977 11.502 9.311 18.265 11.502 6.049 1.977 13.598 0.452 22.647 0.452 0 55.129 0 183.915 0 239.949-8.716 0.643-18.765 0-27.719 2.405-5.334 1.357-12.121 7.454-12.359 11.645-0.119 3.858 6.811 9.383 12.026 11.597 5.049 2.119 11.978 1.191 18.122 1.191 133.263 0.143 266.573 0.143 399.884 0.143 4.548 0 10.049 1.191 13.455-0.595 6.358-3.12 11.478-8.097 17.075-12.312-5.525-4.167-10.359-10.335-16.813-12.097-7.359-2.119-16.336-0.476-25.862-0.476zM410.052 192.893h-60.273v224.756h60.273v-224.756zM624.378 192.893h-60.273v224.756h60.273v-224.756zM526.884 192.893h-81.872v224.756h81.872v-224.756zM489.996 136.835c77.419 0 154.862 0.095 232.234 0 6.168 0 13.098 0.953 18.122-1.357 4.477-2 8.787-7.573 9.335-11.955 0.381-3.215-4.668-8.906-8.644-10.216-6.049-2.048-13.479-1.81-20.337-1.81-152.552 0-305.057 0-457.561 0.048-2.453 0-4.668-0.048-6.977 0-11.193 0.476-26.195-2.096-26.457 12.359-0.381 14.669 14.36 12.836 25.767 12.836 72.823 0.024 145.575 0.024 218.445 0.024 5.311 0 10.835 0 16.122 0-0.048 0.071-0.048 0.071-0.048 0.071zM552.674 643.072c-27.791 0-101.948 0-129.738 0 0.762 23.147 41.174 37.15 65.56 37.507 23.314 0.333 61.964-13.884 64.179-37.507zM549.316 649.788c81.658-22.814 140.621-94.279 135.954-165.483-133.668 0-265.716 0-399.765 0-0.333 41.412 14.55 77.11 42.937 108.306 25.052 27.624 56.701 48.176 95.946 57.654zM904.93 922.91v-41.079c0-49.985-19.265-89.874-69.203-89.874s-73.68 39.912-73.68 89.898v41.055l-214.326 2.262v-40.508c0-49.985-21.456-90.636-71.442-90.636s-71.442 40.65-71.442 90.636v40.508h-190.512v-40.889c0-49.985-21.456-90.636-71.442-90.636s-71.442 40.674-71.442 90.636v40.889h-71.442v-976.372h976.372v976.372l-71.442-2.262zM881.116 44.056h-785.86v666.791h785.86v-666.791zM119.070 839.966c0-10.478 13.336-18.98 23.814-18.98s23.814 8.502 23.814 18.98v113.855c0 10.478-13.336 18.98-23.814 18.98s-23.814-8.502-23.814-18.98v-113.855zM452.465 839.966c0-10.478 13.336-18.98 23.814-18.98s23.814 8.502 23.814 18.98v113.855c0 10.478-13.336 18.98-23.814 18.98s-23.814-8.502-23.814-18.98v-113.855zM809.674 839.966c0-10.478 13.336-18.98 23.814-18.98s23.814 8.502 23.814 18.98v113.855c0 10.478-13.336 18.98-23.814 18.98s-23.814-8.502-23.814-18.98v-113.855z" horiz-adv-x="976" />
<glyph unicode="&#xe61a;" d="M220.636 136.883c28.267 50.652 47.842 76.681 74.633 100.066l-3.477 8.001c-32.458-20.218-49.938-35.435-76.371-65.441-14.074 10.026-21.98 14.646-34.506 20.694l-10.669-9.907c21.337-19.813 32.959-32.887 50.39-53.415zM904.93 922.91v-41.079c0-49.985-19.265-89.874-69.203-89.874s-73.68 39.912-73.68 89.898v41.055l-214.326 2.262v-40.508c0-49.985-21.456-90.636-71.442-90.636s-71.442 40.65-71.442 90.636v40.508h-190.512v-40.889c0-49.985-21.456-90.636-71.442-90.636s-71.442 40.674-71.442 90.636v40.889h-71.442v-976.372h976.372v976.372l-71.442-2.262zM881.116 44.056h-785.86v666.791h785.86v-666.791zM119.070 839.966c0-10.478 13.336-18.98 23.814-18.98s23.814 8.502 23.814 18.98v113.855c0 10.478-13.336 18.98-23.814 18.98s-23.814-8.502-23.814-18.98v-113.855zM452.465 839.966c0-10.478 13.336-18.98 23.814-18.98s23.814 8.502 23.814 18.98v113.855c0 10.478-13.336 18.98-23.814 18.98s-23.814-8.502-23.814-18.98v-113.855zM809.674 839.966c0-10.478 13.336-18.98 23.814-18.98s23.814 8.502 23.814 18.98v113.855c0 10.478-13.336 18.98-23.814 18.98s-23.814-8.502-23.814-18.98v-113.855zM220.636 318.726c28.267 50.652 47.842 76.681 74.633 100.042l-3.477 8.001c-32.458-20.218-49.938-35.435-76.371-65.441-14.074 10.026-21.98 14.646-34.506 20.694l-10.669-9.883c21.337-19.813 32.959-32.887 50.39-53.415zM220.636 500.545c28.267 50.652 47.842 76.681 74.633 100.042l-3.477 8.001c-32.458-20.218-49.938-35.435-76.371-65.441-14.074 10.026-21.98 14.622-34.506 20.694l-10.669-9.883c21.337-19.813 32.959-32.887 50.39-53.415z" horiz-adv-x="976" />
<glyph unicode="&#xe61b;" d="M1023.246 81.883l-272.898 271.067c39.909 62.475 63.068 136.53 63.068 215.809 0 222.81-182.417 404.042-406.681 404.042s-406.735-181.232-406.735-403.988c0-222.702 182.471-403.934 406.735-403.934 75.832 0 146.978 20.735 207.784 56.874l274.783-272.898 133.945 133.029zM151.61 568.812c0 139.707 114.394 253.401 255.071 253.401 140.623 0 255.071-113.64 255.071-253.401s-114.448-253.401-255.071-253.401c-140.677 0-255.071 113.694-255.071 253.401z" horiz-adv-x="1023" />
<glyph unicode="&#xe61c;" d="M512.279 628.767c-15.019 0.403-30.192-5.244-41.612-16.943l-155.089-157.944c-11.078-11.264-16.663-26.128-16.663-40.96 0-14.801 5.585-29.634 16.663-40.96 22.249-22.621 58.244-22.621 80.493 0l116.24 118.412 116.271-118.412c22.218-22.621 58.213-22.621 80.462 0 22.218 22.652 22.218 59.33 0 81.951l-155.058 157.944c-11.512 11.667-26.655 17.284-41.705 16.912zM0 460.831c0 282.345 229.686 512 512 512s512-229.655 512-512c0-282.314-229.686-512-512-512s-512 229.686-512 512zM961.939 460.831c0 248.118-201.852 449.939-449.939 449.939s-449.939-201.821-449.939-449.939c0-248.087 201.852-449.939 449.939-449.939s449.939 201.852 449.939 449.939z" />
<glyph unicode="&#xe61d;" d="M679.905 460.521c0.403 15.019-5.244 30.192-16.943 41.612l-157.944 155.089c-11.264 11.078-26.128 16.663-40.96 16.663-14.801 0-29.634-5.585-40.96-16.663-22.621-22.249-22.621-58.244 0-80.493l118.412-116.24-118.412-116.271c-22.621-22.218-22.621-58.213 0-80.462 22.652-22.218 59.33-22.218 81.951 0l157.944 155.058c11.667 11.512 17.315 26.655 16.912 41.705zM512 972.8c282.345 0 512-229.686 512-512s-229.655-512-512-512c-282.314 0-512 229.686-512 512s229.686 512 512 512zM512 10.861c248.087 0 449.939 201.852 449.939 449.939s-201.852 449.939-449.939 449.939-449.939-201.852-449.939-449.939 201.852-449.939 449.939-449.939z" />
<glyph unicode="&#xe61e;" d="M511.721 292.926c15.019-0.403 30.192 5.244 41.612 16.943l155.089 157.944c11.078 11.264 16.663 26.128 16.663 40.96 0 14.801-5.585 29.634-16.663 40.96-22.249 22.621-58.244 22.621-80.493 0l-116.24-118.412-116.271 118.412c-22.218 22.621-58.213 22.621-80.462 0-22.218-22.652-22.218-59.33 0-81.951l155.058-157.944c11.512-11.667 26.655-17.315 41.705-16.912zM1024 460.831c0-282.345-229.686-512-512-512s-512 229.655-512 512c0 282.314 229.686 512 512 512s512-229.686 512-512zM62.061 460.831c0-248.118 201.852-449.939 449.939-449.939s449.939 201.852 449.939 449.939c0 248.087-201.852 449.939-449.939 449.939s-449.939-201.821-449.939-449.939z" />
<glyph unicode="&#xe61f;" d="M149.949 822.851c-199.626-199.626-199.626-524.438 0-724.103 199.664-199.626 524.4-199.626 724.064 0 199.664 199.664 199.664 524.438 0 724.064-199.664 199.626-524.4 199.702-724.064 0.038zM830.565 142.197c-175.704-175.704-461.501-175.704-637.206 0.038-175.704 175.704-175.704 461.501 0 637.206 175.704 175.704 461.539 175.704 637.206 0 175.704-175.704 175.704-461.539 0-637.244zM323.742 706.989l-57.893-57.931 188.277-188.238-188.277-188.277 57.931-57.931 188.277 188.277 188.238-188.238 57.931 57.931-188.238 188.238 188.238 188.238-57.931 57.931-188.238-188.238-188.315 188.238z" />
<glyph unicode="&#xe620;" d="M352.49 461.065c-0.353-14.268 4.982-28.682 16.096-39.531l150.047-147.335c10.701-10.524 24.822-15.83 38.912-15.83 14.061 0 28.152 5.306 38.912 15.83 21.49 21.137 21.49 55.332 0 76.468l-112.491 110.428 112.491 110.457c21.49 21.107 21.49 55.302 0 76.439-21.519 21.107-56.364 21.107-77.853 0l-150.047-147.305c-11.084-10.936-16.42-25.322-16.066-39.62zM512-25.6c-268.198 0-486.4 218.202-486.4 486.4s218.202 486.4 486.4 486.4c268.198 0 486.4-218.202 486.4-486.4 0-268.198-218.202-486.4-486.4-486.4zM512 888.242c-235.683 0-427.442-191.759-427.442-427.442s191.759-427.442 427.442-427.442 427.442 191.759 427.442 427.442-191.759 427.442-427.442 427.442z" />
</font>
</defs>
</svg>
